# xmcd
#
# Track frame offsets:
#	150
#	10852
#	25735
#	38395
#	59602
#	76102
#	90845
#	106065
#	125632
#	140410
#
# Disc length: 2089
#
# Revision: 3
# Processed by: cddbd v1.5.1PL0 Copyright (c) Steve Scherf et al.
# Submitted via: DiscPlay 3.4.1
# Normalized: r1:DSETVAR1,TSWAP
#
DISCID=6a08270a
DTITLE=Various Artist - Country's Hottest Faces
DYEAR=1900
DGENRE=
TTITLE0=Gary Allan - Living In A House Full Of Love
TTITLE1=Diamond Rio - That's What I Get For Loving You
TTITLE2=Tracy Byrd - Cowgirl
TTITLE3=Lee Ann Womack - Montgomery To Memphis
TTITLE4=Big House - Soul Country
TTITLE5=BR5-49 - Even If It's Wrong
TTITLE6=Tammy Graham - Tell Me Again
TTITLE7=The Mavericks - All You Ever Do Is Bring Me Down
TTITLE8=BlackHawk - Almost A Memory Now
TTITLE9=Alan Jackson - We're All God's Children
EXTD=
EXTT0=
EXTT1=
EXTT2=
EXTT3=
EXTT4=
EXTT5=
EXTT6=
EXTT7=
EXTT8=
EXTT9=
PLAYORDER=
